<?xml version="1.0" encoding="iso-8859-1"?>
<!-- Generator: Adobe Illustrator 19.1.0, SVG Export Plug-In . SVG Version: 6.00 Build 0)  -->
<svg version="1.1" id="Layer_1" xmlns="http://www.w3.org/2000/svg" xmlns:xlink="http://www.w3.org/1999/xlink" x="0px" y="0px"
	 viewBox="-273 364 65 65" style="enable-background:new -273 364 65 65;" xml:space="preserve">
<path d="M-240.54,418.026l-0.621-0.482c-0.565-0.438-1.178-0.907-1.856-1.425l-0.6-0.459c-1.633-1.241-4.018-3.054-7.286-5.63
	c-7.195-5.666-17.037-13.417-17.037-22.854c0-8.005,5.774-12.194,11.477-12.194c4.436,0,8.674,2.529,11.629,6.938
	c0.952,1.429,2.571,2.28,4.331,2.28c1.762,0,3.381-0.85,4.333-2.274c2.954-4.418,7.202-6.952,11.655-6.952
	c5.692,0,11.455,4.147,11.455,12.073c0,9.254-8.773,16.696-16.996,22.945l-4.52,3.435c-2.309,1.751-3.978,3.016-5.349,4.108
	L-240.54,418.026z"/>
</svg>
